<svg id="folder" xmlns="http://www.w3.org/2000/svg" viewBox="0 0 118.64 119.12">
    <path d="M24.6,119.74h79c2.58,0,4.76-1.53,5.08-3.57l10.72-68.1c.38-2.43-2-4.58-5.08-4.58H13.88c-3.08,0-5.46,2.15-5.08,4.58l10.72,68.1C19.84,118.21,22,119.74,24.6,119.74Z" transform="translate(-4.76 -4.61)"/>
    <path d="M18.84,43.49V12.78c.74-2.5,2.66-4.17,4.79-4.17H62.24a12.21,12.21,0,0,1,3.63.56l6.2,14.07a14.5,14.5,0,0,0,4.41.69H109c2.83,0,5.12,8.72,5.12,12.27l.2,7.29" transform="translate(-4.76 -4.61)"/>
</svg>